<svg width="150" height="50" viewBox="0 0 150 50" fill="none" xmlns="http://www.w3.org/2000/svg">
<rect width="4.9331" height="28.821" transform="matrix(0.900643 0.434559 0.388768 -0.921336 68 26.5538)" fill="#1EA1BD"/>
<path d="M17.7407 23.6733L16.2744 33.3413C15.6299 34.061 14.8726 34.6411 14.0024 35.0815C13.1323 35.522 12.2139 35.8389 11.2471 36.0322C10.2803 36.2363 9.32959 36.333 8.39502 36.3223C6.95557 36.3008 5.75781 36.0054 4.80176 35.436C3.8457 34.8667 3.09912 34.1094 2.56201 33.1641C2.03564 32.208 1.69189 31.1392 1.53076 29.9575C1.38037 28.7759 1.38574 27.5459 1.54688 26.2676L2.15918 22.2715C2.35254 20.9502 2.68018 19.6826 3.14209 18.4688C3.604 17.2549 4.21631 16.1699 4.979 15.2139C5.7417 14.2578 6.67627 13.5112 7.78271 12.9741C8.8999 12.4263 10.2051 12.1685 11.6982 12.2007C13.3311 12.2437 14.6362 12.5928 15.6138 13.248C16.5913 13.8926 17.3057 14.8003 17.7568 15.9712C18.208 17.1313 18.4443 18.4741 18.4658 19.9995H14.0024C14.0132 19.3335 13.9648 18.7104 13.8574 18.1304C13.75 17.5396 13.519 17.0615 13.1646 16.6963C12.8101 16.3203 12.2407 16.1162 11.4565 16.084C10.6079 16.0518 9.89893 16.2236 9.32959 16.5996C8.771 16.9756 8.31445 17.4697 7.95996 18.082C7.60547 18.6943 7.33154 19.3711 7.13818 20.1123C6.95557 20.8428 6.82666 21.5518 6.75146 22.2393L6.17139 26.2837C6.09619 26.896 6.03711 27.5513 5.99414 28.2495C5.96191 28.9478 6.01562 29.6138 6.15527 30.2476C6.30566 30.8706 6.59033 31.3862 7.00928 31.7944C7.42822 32.1919 8.05127 32.396 8.87842 32.4067C9.25439 32.4067 9.59814 32.3745 9.90967 32.3101C10.2319 32.2349 10.5381 32.1328 10.8281 32.0039C11.1289 31.8643 11.4297 31.7139 11.7305 31.5527L12.5845 27.2344H9.29736L9.92578 23.6733H17.7407ZM25.4648 11.25L21.1787 36H16.7636L21.0659 11.25H25.4648ZM22.1777 26.6865L21.0659 26.7349C21.1625 25.8647 21.3452 24.9355 21.6137 23.9473C21.8823 22.9482 22.2582 22.0137 22.7416 21.1436C23.2358 20.2627 23.8642 19.5483 24.6269 19.0005C25.4003 18.4526 26.3349 18.1948 27.4306 18.2271C28.3437 18.2485 29.0742 18.4741 29.622 18.9038C30.1806 19.3228 30.5888 19.8652 30.8466 20.5312C31.1152 21.1973 31.2763 21.9224 31.33 22.7065C31.3837 23.48 31.3676 24.2427 31.2817 24.9946L29.4448 36H25.0458L26.8666 24.9463C26.9096 24.5273 26.9257 24.0923 26.915 23.6411C26.9042 23.1792 26.7968 22.7925 26.5927 22.481C26.3886 22.1587 26.0019 21.9976 25.4326 21.9976C24.831 21.9653 24.3315 22.1104 23.934 22.4326C23.5366 22.7441 23.2197 23.147 22.9833 23.6411C22.7578 24.1245 22.5805 24.6401 22.4516 25.188C22.3334 25.7251 22.2421 26.2246 22.1777 26.6865ZM39.0057 31.9878L40.2948 23.8989C40.327 23.5874 40.3324 23.2705 40.3109 22.9482C40.2894 22.626 40.1981 22.3521 40.037 22.1265C39.8866 21.8901 39.6127 21.7666 39.2152 21.7559C38.7855 21.7451 38.4418 21.8364 38.184 22.0298C37.9262 22.2231 37.7274 22.4756 37.5878 22.7871C37.4481 23.0986 37.3461 23.4263 37.2816 23.77L32.8666 23.8022C32.9203 22.9214 33.1405 22.1372 33.5272 21.4497C33.9247 20.7515 34.4349 20.1606 35.058 19.6772C35.681 19.1938 36.3793 18.8286 37.1527 18.5815C37.9369 18.3345 38.7479 18.2163 39.5858 18.2271C40.746 18.2485 41.7289 18.501 42.5345 18.9844C43.3402 19.4678 43.931 20.1338 44.307 20.9824C44.683 21.8311 44.8119 22.8354 44.6937 23.9956L43.453 31.7783C43.3563 32.4121 43.2704 33.0728 43.1952 33.7603C43.1307 34.437 43.2059 35.0923 43.4208 35.7261L43.4047 36L39.1024 36.0161C38.9198 35.3608 38.8339 34.6948 38.8446 34.0181C38.8661 33.3306 38.9198 32.6538 39.0057 31.9878ZM40.6976 25.3491L40.2465 28.0562L38.8124 28.04C38.3934 28.0508 38.0067 28.1313 37.6522 28.2817C37.3085 28.4214 36.997 28.6255 36.7177 28.894C36.4491 29.1519 36.2289 29.4526 36.057 29.7964C35.8959 30.1294 35.7938 30.5054 35.7509 30.9243C35.7079 31.2036 35.7025 31.4883 35.7347 31.7783C35.7777 32.0576 35.8798 32.2939 36.0409 32.4873C36.2128 32.6807 36.4706 32.7827 36.8143 32.7935C37.1903 32.7935 37.5609 32.7183 37.9262 32.5679C38.2914 32.4067 38.5975 32.1812 38.8446 31.8911C39.0917 31.6011 39.2367 31.2627 39.2797 30.876L40.0853 32.6807C39.9027 33.1641 39.6718 33.6313 39.3925 34.0825C39.1239 34.5229 38.8016 34.9204 38.4257 35.2749C38.0604 35.6187 37.6415 35.8872 37.1688 36.0806C36.7069 36.2739 36.1805 36.3652 35.5897 36.3545C34.6552 36.3438 33.8495 36.1021 33.1727 35.6294C32.5067 35.146 32.0072 34.5229 31.6742 33.7603C31.3412 32.9976 31.1962 32.1597 31.2391 31.2466C31.2821 30.2153 31.5184 29.3291 31.9481 28.5879C32.3778 27.8359 32.931 27.2183 33.6078 26.7349C34.2953 26.2515 35.0741 25.897 35.9442 25.6714C36.8251 25.4458 37.7435 25.333 38.6996 25.333L40.6976 25.3491ZM50.7904 22.6904L48.4862 36H44.0872L47.1165 18.5654H51.2738L50.7904 22.6904ZM55.4149 18.4204L54.8187 22.916C54.5823 22.8623 54.3406 22.8247 54.0936 22.8032C53.8572 22.771 53.6263 22.7549 53.4007 22.7549C52.8314 22.7441 52.3426 22.8354 51.9344 23.0288C51.5369 23.2222 51.2039 23.4961 50.9354 23.8506C50.6668 24.1943 50.4412 24.5864 50.2586 25.0269C50.0867 25.4673 49.9525 25.9238 49.8558 26.3965L49.0823 26.0742C49.1683 25.3975 49.3026 24.6079 49.4852 23.7056C49.6785 22.8032 49.9525 21.9331 50.307 21.0952C50.6722 20.2573 51.1556 19.5645 51.7571 19.0166C52.3587 18.4688 53.116 18.1948 54.0291 18.1948C54.2762 18.2056 54.5071 18.2324 54.722 18.2754C54.9476 18.3184 55.1785 18.3667 55.4149 18.4204ZM58.4822 32.2939L65.1531 12.5391H67.5862L67.8601 15.8423L60.8186 36H58.1599L58.4822 32.2939ZM60.3191 12.5391L60.1419 32.7451L59.1589 36H56.2586L55.8396 12.5391H60.3191ZM67.8923 32.2456L73.8704 12.5391H78.4788L70.7605 36H67.8279L67.8923 32.2456ZM69.0042 12.5391L69.552 32.7935L68.7625 36H66.1521L65.427 15.3911L66.5711 12.5391H69.0042ZM86.1545 16.9541L78.0173 36H73.0222L84.2048 12.5391H87.3469L86.1545 16.9541ZM86.7507 36L85.1394 16.5674L85.3972 12.5391H88.3781L91.488 36H86.7507ZM88.4104 27.2505L87.7175 31.166H77.405L78.0979 27.2505H88.4104ZM105.222 32.1006L104.529 36H95.0548L95.7316 32.1006H105.222ZM100.549 12.5391L96.4889 36H91.8805L95.9249 12.5391H100.549ZM117.297 16.9541L109.16 36H104.165L115.347 12.5391H118.489L117.297 16.9541ZM117.893 36L116.282 16.5674L116.54 12.5391H119.521L122.63 36H117.893ZM119.553 27.2505L118.86 31.166H108.547L109.24 27.2505H119.553Z" fill="#1EA1BD"/>
<path d="M75.1346 48H73.8734V41.6982H75.1346V48ZM77.2903 48H76.0905V43.2935H76.3806L76.7761 43.7505C76.9695 43.5747 77.1877 43.4399 77.4309 43.3462C77.677 43.2495 77.9333 43.2012 78.1999 43.2012C78.487 43.2012 78.758 43.2568 79.0129 43.3682C79.2678 43.4766 79.4905 43.6274 79.6809 43.8208C79.8713 44.0112 80.0207 44.2354 80.1291 44.4932C80.2405 44.748 80.2961 45.0205 80.2961 45.3105V48H79.0964V45.3105C79.0964 45.1875 79.073 45.0718 79.0261 44.9634C78.9792 44.8521 78.9148 44.7554 78.8327 44.6733C78.7507 44.5913 78.6555 44.5269 78.5471 44.48C78.4387 44.4331 78.323 44.4097 78.1999 44.4097C78.0739 44.4097 77.9553 44.4331 77.844 44.48C77.7326 44.5269 77.636 44.5913 77.5539 44.6733C77.4719 44.7554 77.4074 44.8521 77.3606 44.9634C77.3137 45.0718 77.2903 45.1875 77.2903 45.3105V48ZM83.3614 48C83.0713 48 82.7989 47.9458 82.544 47.8374C82.2891 47.7261 82.065 47.5752 81.8716 47.3848C81.6812 47.1914 81.5303 46.9673 81.419 46.7124C81.3106 46.4575 81.2564 46.1851 81.2564 45.895V44.4976H80.6719V43.3022H81.2564V41.4214H82.4517V43.3022H84.2711V44.4976H82.4517V45.895C82.4517 46.021 82.4752 46.1396 82.522 46.251C82.5689 46.3594 82.6334 46.4546 82.7154 46.5366C82.7974 46.6187 82.8941 46.6846 83.0054 46.7344C83.1168 46.7812 83.2354 46.8047 83.3614 46.8047H84.2711V48H83.3614ZM86.7299 46.8486C86.7768 46.8633 86.8236 46.8735 86.8705 46.8794C86.9174 46.8823 86.9643 46.8838 87.0111 46.8838C87.1283 46.8838 87.2411 46.8677 87.3495 46.8354C87.4579 46.8032 87.559 46.7578 87.6527 46.6992C87.7494 46.6377 87.8344 46.5645 87.9076 46.4795C87.9838 46.3916 88.0453 46.2949 88.0922 46.1895L88.9711 47.0728C88.8598 47.231 88.7309 47.373 88.5844 47.499C88.4408 47.625 88.2841 47.7319 88.1142 47.8198C87.9472 47.9077 87.7699 47.9736 87.5824 48.0176C87.3979 48.0645 87.2074 48.0879 87.0111 48.0879C86.6801 48.0879 86.3681 48.0264 86.0751 47.9033C85.7851 47.7803 85.5302 47.6089 85.3104 47.3892C85.0937 47.1694 84.9223 46.9087 84.7963 46.6069C84.6703 46.3022 84.6073 45.9683 84.6073 45.605C84.6073 45.2329 84.6703 44.8931 84.7963 44.5854C84.9223 44.2778 85.0937 44.0156 85.3104 43.7988C85.5302 43.582 85.7851 43.4136 86.0751 43.2935C86.3681 43.1733 86.6801 43.1133 87.0111 43.1133C87.2074 43.1133 87.3993 43.1367 87.5868 43.1836C87.7743 43.2305 87.9516 43.2979 88.1186 43.3857C88.2885 43.4736 88.4467 43.582 88.5932 43.7109C88.7396 43.8369 88.8686 43.979 88.9799 44.1372L86.7299 46.8486ZM87.3451 44.3745C87.2895 44.354 87.2338 44.3408 87.1781 44.335C87.1254 44.3291 87.0697 44.3262 87.0111 44.3262C86.8471 44.3262 86.6918 44.3569 86.5453 44.4185C86.4018 44.4771 86.2758 44.562 86.1674 44.6733C86.0619 44.7847 85.9784 44.9194 85.9169 45.0776C85.8554 45.2329 85.8246 45.4087 85.8246 45.605C85.8246 45.6489 85.8261 45.6987 85.829 45.7544C85.8349 45.8101 85.8422 45.8672 85.851 45.9258C85.8627 45.9814 85.8759 46.0356 85.8905 46.0884C85.9052 46.1411 85.9242 46.188 85.9477 46.229L87.3451 44.3745ZM90.696 48H89.4963V43.2935H89.7864L90.1819 43.8516C90.3752 43.6758 90.595 43.541 90.8411 43.4473C91.0872 43.3506 91.342 43.3022 91.6057 43.3022H92.6648V44.4976H91.6057C91.4797 44.4976 91.3611 44.521 91.2497 44.5679C91.1384 44.6147 91.0417 44.6792 90.9597 44.7612C90.8777 44.8433 90.8132 44.9399 90.7663 45.0513C90.7195 45.1626 90.696 45.2812 90.696 45.4072V48ZM94.5479 42.0146C94.5479 42.126 94.526 42.23 94.482 42.3267C94.441 42.4233 94.3839 42.5083 94.3106 42.5815C94.2374 42.6519 94.151 42.709 94.0513 42.7529C93.9547 42.7939 93.8507 42.8145 93.7393 42.8145C93.628 42.8145 93.5225 42.7939 93.4229 42.7529C93.3263 42.709 93.2413 42.6519 93.168 42.5815C93.0977 42.5083 93.0406 42.4233 92.9967 42.3267C92.9556 42.23 92.9351 42.126 92.9351 42.0146C92.9351 41.9062 92.9556 41.8037 92.9967 41.707C93.0406 41.6074 93.0977 41.5225 93.168 41.4521C93.2413 41.3789 93.3263 41.3218 93.4229 41.2808C93.5225 41.2368 93.628 41.2148 93.7393 41.2148C93.8507 41.2148 93.9547 41.2368 94.0513 41.2808C94.151 41.3218 94.2374 41.3789 94.3106 41.4521C94.3839 41.5225 94.441 41.6074 94.482 41.707C94.526 41.8037 94.5479 41.9062 94.5479 42.0146ZM94.3414 48H93.1329V43.2935H94.3414V48ZM99.7182 45.605C99.7182 45.9565 99.6552 46.2847 99.5292 46.5894C99.4032 46.8911 99.2319 47.1533 99.0151 47.376C98.7983 47.5957 98.5434 47.77 98.2504 47.8989C97.9604 48.0249 97.6484 48.0879 97.3144 48.0879C96.9833 48.0879 96.6713 48.0249 96.3783 47.8989C96.0883 47.77 95.8334 47.5957 95.6137 47.376C95.3969 47.1533 95.2255 46.8911 95.0995 46.5894C94.9736 46.2847 94.9106 45.9565 94.9106 45.605C94.9106 45.2476 94.9736 44.9165 95.0995 44.6118C95.2255 44.3071 95.3969 44.0449 95.6137 43.8252C95.8334 43.6025 96.0883 43.4282 96.3783 43.3022C96.6713 43.1763 96.9833 43.1133 97.3144 43.1133C97.6484 43.1133 97.9604 43.1733 98.2504 43.2935C98.5434 43.4106 98.7983 43.5791 99.0151 43.7988C99.2319 44.0156 99.4032 44.2778 99.5292 44.5854C99.6552 44.8901 99.7182 45.23 99.7182 45.605ZM98.5097 45.605C98.5097 45.4116 98.4775 45.2373 98.413 45.082C98.3515 44.9238 98.2665 44.7891 98.1581 44.6777C98.0497 44.5635 97.9223 44.4771 97.7758 44.4185C97.6322 44.3569 97.4784 44.3262 97.3144 44.3262C97.1503 44.3262 96.995 44.3569 96.8486 44.4185C96.705 44.4771 96.579 44.5635 96.4706 44.6777C96.3652 44.7891 96.2817 44.9238 96.2201 45.082C96.1586 45.2373 96.1279 45.4116 96.1279 45.605C96.1279 45.7866 96.1586 45.9551 96.2201 46.1104C96.2817 46.2656 96.3652 46.4004 96.4706 46.5146C96.579 46.6289 96.705 46.7197 96.8486 46.7871C96.995 46.8516 97.1503 46.8838 97.3144 46.8838C97.4784 46.8838 97.6322 46.853 97.7758 46.7915C97.9223 46.73 98.0497 46.6436 98.1581 46.5322C98.2665 46.4209 98.3515 46.2861 98.413 46.1279C98.4775 45.9697 98.5097 45.7954 98.5097 45.605ZM101.491 48H100.292V43.2935H100.582L100.977 43.8516C101.171 43.6758 101.39 43.541 101.636 43.4473C101.883 43.3506 102.137 43.3022 102.401 43.3022H103.46V44.4976H102.401C102.275 44.4976 102.157 44.521 102.045 44.5679C101.934 44.6147 101.837 44.6792 101.755 44.7612C101.673 44.8433 101.609 44.9399 101.562 45.0513C101.515 45.1626 101.491 45.2812 101.491 45.4072V48ZM104.834 47.5518C104.834 47.6572 104.815 47.7568 104.776 47.8506C104.738 47.9414 104.686 48.0205 104.618 48.0879C104.551 48.1553 104.472 48.208 104.381 48.2461C104.29 48.2871 104.192 48.3076 104.087 48.3076C103.984 48.3076 103.886 48.2871 103.792 48.2461C103.701 48.208 103.621 48.1553 103.55 48.0879C103.483 48.0205 103.429 47.9414 103.388 47.8506C103.35 47.7568 103.331 47.6572 103.331 47.5518C103.331 47.4492 103.35 47.3525 103.388 47.2617C103.429 47.1709 103.483 47.0918 103.55 47.0244C103.621 46.957 103.701 46.9043 103.792 46.8662C103.886 46.8252 103.984 46.8047 104.087 46.8047C104.192 46.8047 104.29 46.8252 104.381 46.8662C104.472 46.9043 104.551 46.957 104.618 47.0244C104.686 47.0918 104.738 47.1709 104.776 47.2617C104.815 47.3525 104.834 47.4492 104.834 47.5518ZM109.753 44.2295L108.874 45.1128C108.831 44.9897 108.77 44.8799 108.694 44.7832C108.618 44.6836 108.532 44.6001 108.435 44.5327C108.341 44.4653 108.239 44.4141 108.127 44.3789C108.016 44.3438 107.902 44.3262 107.785 44.3262C107.621 44.3262 107.465 44.3599 107.319 44.4272C107.175 44.4946 107.049 44.5898 106.941 44.7129C106.835 44.833 106.752 44.9766 106.69 45.1436C106.629 45.3105 106.598 45.4951 106.598 45.6973C106.598 45.8613 106.629 46.0151 106.69 46.1587C106.752 46.3022 106.835 46.4282 106.941 46.5366C107.049 46.645 107.175 46.73 107.319 46.7915C107.465 46.853 107.621 46.8838 107.785 46.8838C107.902 46.8838 108.015 46.8677 108.123 46.8354C108.231 46.8032 108.332 46.7578 108.426 46.6992C108.523 46.6377 108.608 46.5645 108.681 46.4795C108.757 46.3916 108.819 46.2949 108.866 46.1895L109.745 47.0728C109.633 47.231 109.504 47.373 109.358 47.499C109.214 47.625 109.058 47.7319 108.888 47.8198C108.721 47.9077 108.543 47.9736 108.356 48.0176C108.171 48.0645 107.981 48.0879 107.785 48.0879C107.454 48.0879 107.142 48.0264 106.849 47.9033C106.559 47.7773 106.304 47.606 106.084 47.3892C105.867 47.1724 105.696 46.9189 105.57 46.6289C105.444 46.3389 105.381 46.0283 105.381 45.6973C105.381 45.3369 105.444 45 105.57 44.6865C105.696 44.373 105.867 44.1006 106.084 43.8691C106.304 43.6348 106.559 43.4502 106.849 43.3154C107.142 43.1807 107.454 43.1133 107.785 43.1133C107.981 43.1133 108.173 43.1382 108.36 43.188C108.551 43.2378 108.731 43.311 108.901 43.4077C109.074 43.5015 109.232 43.6172 109.375 43.7549C109.522 43.8926 109.648 44.0508 109.753 44.2295ZM114.73 45.605C114.73 45.9565 114.667 46.2847 114.541 46.5894C114.415 46.8911 114.244 47.1533 114.027 47.376C113.81 47.5957 113.555 47.77 113.262 47.8989C112.972 48.0249 112.66 48.0879 112.326 48.0879C111.995 48.0879 111.683 48.0249 111.39 47.8989C111.1 47.77 110.845 47.5957 110.626 47.376C110.409 47.1533 110.238 46.8911 110.112 46.5894C109.986 46.2847 109.923 45.9565 109.923 45.605C109.923 45.2476 109.986 44.9165 110.112 44.6118C110.238 44.3071 110.409 44.0449 110.626 43.8252C110.845 43.6025 111.1 43.4282 111.39 43.3022C111.683 43.1763 111.995 43.1133 112.326 43.1133C112.66 43.1133 112.972 43.1733 113.262 43.2935C113.555 43.4106 113.81 43.5791 114.027 43.7988C114.244 44.0156 114.415 44.2778 114.541 44.5854C114.667 44.8901 114.73 45.23 114.73 45.605ZM113.522 45.605C113.522 45.4116 113.49 45.2373 113.425 45.082C113.364 44.9238 113.279 44.7891 113.17 44.6777C113.062 44.5635 112.934 44.4771 112.788 44.4185C112.644 44.3569 112.491 44.3262 112.326 44.3262C112.162 44.3262 112.007 44.3569 111.861 44.4185C111.717 44.4771 111.591 44.5635 111.483 44.6777C111.377 44.7891 111.294 44.9238 111.232 45.082C111.171 45.2373 111.14 45.4116 111.14 45.605C111.14 45.7866 111.171 45.9551 111.232 46.1104C111.294 46.2656 111.377 46.4004 111.483 46.5146C111.591 46.6289 111.717 46.7197 111.861 46.7871C112.007 46.8516 112.162 46.8838 112.326 46.8838C112.491 46.8838 112.644 46.853 112.788 46.7915C112.934 46.73 113.062 46.6436 113.17 46.5322C113.279 46.4209 113.364 46.2861 113.425 46.1279C113.49 45.9697 113.522 45.7954 113.522 45.605ZM121.289 48H120.094V45.0117C120.094 44.9297 120.078 44.8521 120.046 44.7788C120.016 44.7056 119.974 44.6411 119.918 44.5854C119.862 44.5298 119.798 44.4873 119.725 44.458C119.651 44.4258 119.574 44.4097 119.492 44.4097C119.41 44.4097 119.332 44.4258 119.259 44.458C119.189 44.4873 119.126 44.5298 119.07 44.5854C119.017 44.6411 118.975 44.7056 118.942 44.7788C118.913 44.8521 118.899 44.9297 118.899 45.0117V48H117.699V45.0117C117.699 44.9297 117.683 44.8521 117.651 44.7788C117.621 44.7056 117.579 44.6411 117.523 44.5854C117.467 44.5298 117.403 44.4873 117.33 44.458C117.256 44.4258 117.179 44.4097 117.097 44.4097C117.015 44.4097 116.937 44.4258 116.864 44.458C116.794 44.4873 116.731 44.5298 116.675 44.5854C116.622 44.6411 116.58 44.7056 116.547 44.7788C116.518 44.8521 116.504 44.9297 116.504 45.0117V48H115.304V43.2935H115.594L115.919 43.6538C116.086 43.5132 116.269 43.4048 116.468 43.3286C116.671 43.2495 116.88 43.21 117.097 43.21C117.317 43.21 117.53 43.251 117.738 43.333C117.949 43.415 118.134 43.5571 118.292 43.7593C118.365 43.6597 118.449 43.5747 118.543 43.5044C118.636 43.4341 118.734 43.377 118.837 43.333C118.942 43.2891 119.051 43.2583 119.162 43.2407C119.274 43.2202 119.383 43.21 119.492 43.21C119.741 43.21 119.974 43.2568 120.191 43.3506C120.41 43.4443 120.601 43.5732 120.762 43.7373C120.926 43.8984 121.055 44.0889 121.149 44.3086C121.242 44.5283 121.289 44.7627 121.289 45.0117V48Z" fill="black"/>
<path d="M138.38 25.9815C136.743 25.0716 133.585 22.2144 134.048 18.0651" stroke="#64CDB4"/>
<path d="M134.002 18.0652C135.638 18.9752 138.796 21.8323 138.334 25.9816" stroke="#64CDB4"/>
<path d="M142.758 25.9815C144.395 25.0716 147.552 22.2144 147.09 18.0651" stroke="#64CDB4"/>
<path d="M147.136 18.0652C145.499 18.9752 142.341 21.8323 142.803 25.9816" stroke="#64CDB4"/>
<path d="M139.448 26.1382C141.58 23.9332 145.139 18.827 142.317 16.0419" stroke="#64CDB4"/>
<path d="M142.39 16C140.258 18.205 136.699 23.3113 139.52 26.0963" stroke="#64CDB4"/>
<path d="M132.32 26.5595C129.937 37.3908 141.635 35.7559 141.635 35.7559" stroke="#1EA1BD"/>
<path d="M148.68 26.5595C151.063 37.3908 139.365 35.7559 139.365 35.7559" stroke="#1EA1BD"/>
<path d="M132.104 26.7638H148.783" stroke="#1EA1BD"/>
</svg>
